# xmcd
#
# Track frame offsets: 
#        150
#        25663
#        60033
#        65633
#        81930
#        104580
#        120283
#        143796
#        165835
#        180342
#        195958
#        215701
#        224785
#        240252
#        266376
#        279983
#        291912
#        313073
#
# Disc length: 4374 seconds
#
# Revision: 0
# Processed by: cddbd v1.4PL0 Copyright (c) Steve Scherf et al.
# Submitted via: ExactAudioCopy v0.90b4
#
DISCID=f9111412
DTITLE=Van Morrison - In Copenhagen
DYEAR=1983
DGENRE=Celtic
TTITLE0=Inarticulate Speech Of The Heart # 2
TTITLE1=Moondance
TTITLE2=Into The Mystic > Inarticulate Speech Of The Heart # 1
TTITLE3=Dweller On The Threshold
TTITLE4=It's All In The Game > You Know What They're Writing About
TTITLE5=Bright Side Of The Road
TTITLE6=Vanlose Stairway
TTITLE7=Evening Meditation
TTITLE8=Northern Muse (Solid Ground)
TTITLE9=Beautiful Vision
TTITLE10=She Gives Me Religion
TTITLE11=Connswater
TTITLE12=Cry For Home
TTITLE13=Haunts Of Ancient Peace
TTITLE14=The Street Only Knew Your Name
TTITLE15=Celtic Swing
TTITLE16=Aryan Mist
TTITLE17=Full Force Gale
EXTD=
EXTT0=
EXTT1=
EXTT2=
EXTT3=
EXTT4=
EXTT5=
EXTT6=
EXTT7=
EXTT8=
EXTT9=
EXTT10=
EXTT11=
EXTT12=
EXTT13=
EXTT14=
EXTT15=
EXTT16=
EXTT17=
PLAYORDER=
